<svg xmlns="http://www.w3.org/2000/svg" viewBox="9 16 44 31" width="32" height="32" fill="none">
  <path fill-rule="evenodd" d="M27.212 19.433c1.416-1.473 3.384-2.385 5.561-2.385 2.901 0 5.414 1.612 6.768 4.013 1.202-.537 2.504-.814 3.819-.814 5.222 0 9.463 4.271 9.463 9.541s-4.24 9.541-9.463 9.541c-.637 0-1.26-.064-1.87-.185-1.184 2.111-3.448 3.545-6.027 3.545-1.05.002-2.085-.236-3.029-.695-1.202 2.821-3.997 4.802-7.253 4.802-3.401 0-6.285-2.144-7.398-5.157a7.19 7.19 0 0 1-1.505.155c-4.046 0-7.319-3.32-7.319-7.397a7.43 7.43 0 0 1 3.66-6.413c-.465-1.068-.702-2.221-.702-3.385 0-4.706 3.819-8.51 8.526-8.51a8.49 8.49 0 0 1 6.77 3.352" fill="#00a1e0"/>
</svg>
